<?xml version="1.0" encoding="UTF-8" standalone="no"?><!-- Generator: Gravit.io --><svg xmlns="http://www.w3.org/2000/svg" xmlns:xlink="http://www.w3.org/1999/xlink" style="isolation:isolate" viewBox="0 0 1600 643" width="1600pt" height="643pt"><defs><clipPath id="_clipPath_bBUDj1YOtoVN1XKhHHBM4MqIUGqZn7bP"><rect width="1600" height="643"/></clipPath></defs><g clip-path="url(#_clipPath_bBUDj1YOtoVN1XKhHHBM4MqIUGqZn7bP)"><clipPath id="_clipPath_sbcFQIb0YZ49NgAFuj1jEQZ5LomCQyvV"><rect x="0" y="0" width="1600" height="643" transform="matrix(1,0,0,1,0,0)" fill="rgb(255,255,255)"/></clipPath><g clip-path="url(#_clipPath_sbcFQIb0YZ49NgAFuj1jEQZ5LomCQyvV)"><g><clipPath id="_clipPath_i5BI2pIfA4aQ7a73TjFz3ko9bX12L6xS"><rect x="0" y="0" width="1600" height="643" transform="matrix(1,0,0,1,0,0)" fill="rgb(255,255,255)"/></clipPath><g clip-path="url(#_clipPath_i5BI2pIfA4aQ7a73TjFz3ko9bX12L6xS)"><g><g><path d=" M 1416.569 466.787 L 1396.67 466.787 L 1401.032 465.561 C 1400.487 461.745 1398.578 455.884 1396.262 450.978 L 1416.978 450.978 C 1415.751 455.612 1413.707 461.472 1412.208 465.561 L 1416.569 466.787 Z  M 1414.116 427.944 L 1431.833 427.944 L 1431.833 414.588 L 1414.116 414.588 L 1414.116 402.731 L 1399.124 402.731 L 1399.124 414.588 L 1379.634 414.588 L 1379.634 427.944 L 1399.124 427.944 L 1399.124 437.349 L 1374.864 437.349 L 1374.864 450.978 L 1388.357 450.978 L 1383.45 452.204 C 1385.358 456.702 1387.13 462.426 1387.948 466.787 L 1377.726 466.787 L 1377.726 480.416 L 1399.124 480.416 L 1399.124 490.911 L 1378.816 490.911 L 1378.816 504.54 L 1399.124 504.54 L 1399.124 529.345 L 1414.116 529.345 L 1414.116 504.54 L 1433.333 504.54 L 1433.333 490.911 L 1414.116 490.911 L 1414.116 480.416 L 1434.832 480.416 L 1434.832 466.787 L 1424.61 466.787 C 1426.518 462.699 1428.562 457.383 1430.879 452.341 L 1425.564 450.978 L 1436.876 450.978 L 1436.876 437.349 L 1414.116 437.349 L 1414.116 427.944 Z  M 1454.049 473.329 C 1457.456 484.096 1461.817 494.046 1467.133 502.768 C 1463.317 508.084 1458.955 512.717 1454.049 516.67 L 1454.049 473.329 Z  M 1482.397 467.741 C 1480.762 475.101 1478.309 482.325 1475.174 488.866 C 1471.222 482.325 1467.951 475.237 1465.497 467.741 L 1482.397 467.741 Z  M 1489.621 454.249 L 1486.895 454.93 L 1454.049 454.93 L 1454.049 422.357 L 1481.171 422.357 L 1481.171 433.532 C 1481.171 435.032 1480.489 435.44 1478.445 435.577 C 1476.401 435.577 1468.905 435.577 1462.226 435.304 C 1464.134 439.257 1466.179 444.845 1466.86 449.206 C 1476.809 449.206 1484.169 449.07 1489.348 446.889 C 1494.664 444.708 1496.163 440.756 1496.163 433.805 L 1496.163 408.182 L 1439.329 408.182 L 1439.329 529.617 L 1454.049 529.617 L 1454.049 521.576 C 1456.911 524.166 1459.773 527.301 1461.545 530.026 C 1467.133 525.938 1472.039 521.031 1476.401 515.443 C 1481.443 521.167 1487.031 526.074 1493.437 529.89 C 1495.754 525.801 1500.388 520.077 1503.931 517.079 C 1496.844 513.535 1490.575 508.356 1484.987 502.223 C 1491.938 489.412 1496.708 474.147 1499.297 457.656 L 1489.621 454.249 Z  M 1248.522 468.832 C 1251.384 458.337 1253.565 442.119 1253.838 430.807 L 1242.389 429.307 C 1241.708 440.347 1239.663 455.612 1236.801 464.879 L 1248.522 468.832 Z  M 1300.313 498.271 L 1300.313 492.001 L 1341.064 492.001 L 1341.064 498.271 L 1300.313 498.271 Z  M 1341.064 474.147 L 1341.064 480.553 L 1300.313 480.553 L 1300.313 474.147 L 1341.064 474.147 Z  M 1356.328 462.29 L 1285.321 462.29 L 1285.321 529.89 L 1300.313 529.89 L 1300.313 509.446 L 1341.064 509.446 L 1341.064 513.944 C 1341.064 515.58 1340.382 516.125 1338.474 516.125 C 1336.702 516.125 1330.297 516.261 1324.709 515.852 C 1326.617 519.805 1328.525 525.665 1329.07 529.617 C 1338.474 529.617 1345.289 529.617 1350.059 527.301 C 1354.965 525.12 1356.328 521.304 1356.328 514.217 L 1356.328 462.29 Z  M 1328.389 445.526 L 1328.389 439.665 L 1357.691 439.665 L 1357.691 428.762 L 1328.389 428.762 L 1328.389 423.311 L 1361.371 423.311 L 1361.371 411.726 L 1328.389 411.726 L 1328.389 402.458 L 1312.306 402.458 L 1312.306 411.726 L 1280.414 411.726 L 1280.414 423.311 L 1312.306 423.311 L 1312.306 428.762 L 1284.094 428.762 L 1284.094 439.529 C 1282.459 434.486 1279.324 426.854 1276.462 420.994 L 1268.693 424.265 L 1268.693 402.458 L 1254.11 402.458 L 1254.11 529.617 L 1268.693 529.617 L 1268.693 430.534 C 1270.874 435.849 1272.782 441.574 1273.736 445.526 L 1284.367 440.347 L 1284.094 439.665 L 1312.306 439.665 L 1312.306 445.526 L 1276.189 445.526 L 1276.189 457.111 L 1365.46 457.111 L 1365.46 445.526 L 1328.389 445.526 Z  M 662.608 519.805 C 675.691 519.805 686.458 514.625 694.772 504.949 L 684.142 492.41 C 678.69 498.271 671.875 502.359 663.289 502.359 C 647.343 502.359 636.985 489.139 636.985 467.196 C 636.985 445.526 648.433 432.442 663.698 432.442 C 671.33 432.442 677.191 435.986 682.233 440.892 L 692.864 428.081 C 686.322 421.266 676.1 415.133 663.289 415.133 C 637.803 415.133 616.405 434.623 616.405 467.878 C 616.405 501.542 637.121 519.805 662.608 519.805 Z  M 745.745 519.805 C 772.458 519.805 790.857 499.77 790.857 467.06 C 790.857 434.35 772.458 415.133 745.745 415.133 C 719.032 415.133 700.633 434.214 700.633 467.06 C 700.633 499.77 719.032 519.805 745.745 519.805 Z  M 745.745 502.359 C 730.753 502.359 721.213 488.594 721.213 467.06 C 721.213 445.39 730.753 432.442 745.745 432.442 C 760.737 432.442 770.277 445.39 770.277 467.06 C 770.277 488.594 760.737 502.359 745.745 502.359 Z  M 826.702 517.896 L 850.689 517.896 L 881.627 417.041 L 861.183 417.041 L 848.099 466.106 C 844.965 477.282 842.648 487.367 839.513 498.679 L 838.832 498.679 C 835.561 487.367 833.516 477.282 830.382 466.106 L 817.025 417.041 L 795.9 417.041 L 826.702 517.896 Z  M 893.212 517.896 L 913.383 517.896 L 913.383 417.041 L 893.212 417.041 L 893.212 517.896 Z  M 938.188 517.896 L 966.945 517.896 C 996.657 517.896 1015.737 500.996 1015.737 467.06 C 1015.737 432.987 996.657 417.041 965.855 417.041 L 938.188 417.041 L 938.188 517.896 Z  M 958.359 501.678 L 958.359 433.124 L 964.628 433.124 C 983.436 433.124 995.157 442.391 995.157 467.06 C 995.157 491.592 983.436 501.678 964.628 501.678 L 958.359 501.678 Z  M 1029.775 486.004 L 1066.983 486.004 L 1066.983 471.694 L 1029.775 471.694 L 1029.775 486.004 Z  M 1084.701 517.896 L 1145.35 517.896 L 1145.35 501.678 L 1126.406 501.678 L 1126.406 417.041 L 1111.55 417.041 C 1105.144 420.994 1098.193 423.583 1088.108 425.491 L 1088.108 437.894 L 1106.371 437.894 L 1106.371 501.678 L 1084.701 501.678 L 1084.701 517.896 Z  M 1191.961 466.242 C 1183.239 466.242 1177.651 460.654 1177.651 448.797 C 1177.651 436.394 1183.784 430.261 1191.28 430.261 C 1199.866 430.261 1206.817 437.076 1208.589 455.475 C 1203.682 463.244 1197.413 466.242 1191.961 466.242 Z  M 1160.887 508.356 C 1166.884 514.489 1176.015 519.805 1188.554 519.805 C 1208.589 519.805 1227.261 503.313 1227.261 465.152 C 1227.261 430.125 1210.088 415.133 1191.007 415.133 C 1173.698 415.133 1159.252 428.081 1159.252 448.797 C 1159.252 470.195 1171.382 480.553 1188.145 480.553 C 1195.096 480.553 1203.682 476.328 1208.862 469.513 C 1208.044 494.863 1198.64 503.45 1187.328 503.45 C 1181.331 503.45 1175.061 500.315 1171.382 496.362 L 1160.887 508.356 Z " fill="rgb(70,70,70)"/></g></g></g><g><path d=" M 50.708 191.406 L 50.708 433.586 L 282.331 433.586 L 50.708 191.406 Z " fill-rule="evenodd" fill="rgb(0,105,92)"/><path d=" M 590.955 465.876 L 302.202 177.124 L 13.45 465.876 L 590.955 465.876 Z " fill-rule="evenodd" fill="rgb(38,166,154)"/></g></g></g><path d=" M 1267.486 187.01 L 1186.442 187.01 L 1186.442 174.731 L 1267.486 174.731 L 1267.486 187.01 Z  M 1267.486 218.446 L 1186.442 218.446 L 1186.442 205.675 L 1267.486 205.675 L 1267.486 218.446 Z  M 1267.486 249.39 L 1186.442 249.39 L 1186.442 236.865 L 1267.486 236.865 L 1267.486 249.39 Z  M 1296.22 154.838 L 1158.936 154.838 L 1158.936 269.283 L 1296.22 269.283 L 1296.22 154.838 Z  M 1151.077 314.717 C 1140.271 328.224 1118.413 344.433 1098.766 354.257 C 1105.397 358.923 1116.203 367.764 1122.588 373.904 C 1142.727 362.607 1165.812 343.942 1181.53 326.014 L 1151.077 314.717 Z  M 1322.252 307.84 L 1322.252 282.053 L 1141.99 282.053 L 1141.99 169.573 L 1112.519 169.573 L 1112.519 312.998 L 1141.99 312.998 L 1141.99 307.84 L 1196.756 307.84 L 1196.756 375.623 L 1227.455 375.623 L 1227.455 307.84 L 1322.252 307.84 Z  M 1242.927 328.47 C 1261.592 341.977 1286.642 362.115 1298.185 374.149 L 1325.199 355.976 C 1312.183 343.451 1286.151 325.031 1267.977 312.752 L 1242.927 328.47 Z  M 880.683 158.522 L 880.683 243.005 C 880.683 283.527 877.49 324.786 849.493 356.712 C 857.106 361.379 868.895 371.202 874.543 377.833 C 907.207 340.749 910.89 290.895 910.89 243.25 L 910.89 158.522 L 880.683 158.522 Z  M 955.588 169.082 L 955.588 351.801 L 985.55 351.801 L 985.55 169.082 L 955.588 169.082 Z  M 1030.247 158.031 L 1030.247 374.886 L 1061.191 374.886 L 1061.191 158.031 L 1030.247 158.031 Z  M 654.986 277.142 C 673.897 265.599 691.334 251.109 705.332 234.9 L 705.332 271.493 L 735.785 271.493 L 735.785 235.146 C 751.503 251.355 770.413 265.844 790.306 277.142 L 654.986 277.142 Z  M 675.616 345.907 L 675.616 332.399 L 768.203 332.399 L 768.203 345.907 L 675.616 345.907 Z  M 768.203 312.506 L 675.616 312.506 L 675.616 299.245 L 768.203 299.245 L 768.203 312.506 Z  M 830.337 228.024 L 830.337 201.991 L 735.785 201.991 L 735.785 181.853 C 760.344 178.906 783.921 175.222 804.305 170.065 L 783.675 146.734 C 746.837 155.82 685.685 161.715 631.901 163.679 C 634.848 170.31 638.286 181.362 639.023 188.484 C 660.635 187.993 682.984 186.765 705.332 184.8 L 705.332 201.991 L 611.271 201.991 L 611.271 228.024 L 677.826 228.024 C 657.933 245.461 631.164 260.687 604.395 268.792 C 610.535 274.686 618.885 285.737 623.305 292.614 C 631.164 289.667 638.777 286.228 646.391 282.053 L 646.391 375.623 L 675.616 375.623 L 675.616 368.01 L 768.203 368.01 L 768.203 375.377 L 798.902 375.377 L 798.902 281.808 C 805.778 285.246 812.163 288.193 819.04 290.649 C 823.215 283.772 831.565 272.967 837.705 267.318 C 811.427 259.214 784.166 244.478 763.537 228.024 L 830.337 228.024 Z " fill="rgb(70,70,70)"/></g></svg>